<?xml version="1.0" standalone="no"?>
<!DOCTYPE svg PUBLIC "-//W3C//DTD SVG 20010904//EN"
 "http://www.w3.org/TR/2001/REC-SVG-20010904/DTD/svg10.dtd">
<svg version="1.0" xmlns="http://www.w3.org/2000/svg"
 width="247.000000pt" height="247.000000pt" viewBox="0 0 247.000000 247.000000"
 preserveAspectRatio="xMidYMid meet">
<metadata>
Created by potrace 1.11, written by Peter Selinger 2001-2013
</metadata>
<g transform="translate(0.000000,247.000000) scale(0.100000,-0.100000)"
fill="#000000" stroke="none">
<path d="M1890 2341 c0 -12 -6 -24 -14 -27 -10 -4 -14 -24 -15 -65 -1 -62 -6
-83 -20 -75 -11 7 -30 -60 -24 -83 5 -18 -9 -34 -34 -37 -8 -1 -14 9 -14 24
-3 53 -6 77 -12 107 -3 17 -9 48 -12 70 -6 43 -19 63 -29 46 -4 -6 -4 -11 1
-11 4 0 2 -4 -4 -8 -7 -5 -15 -22 -16 -39 -2 -16 -8 -36 -12 -43 -10 -17 -15
-70 -6 -70 13 0 33 -71 23 -83 -10 -13 -9 -35 3 -79 4 -16 3 -28 -2 -28 -14 0
-33 22 -33 38 0 8 -11 25 -25 38 -14 13 -25 34 -25 48 0 29 -9 56 -19 56 -4 0
-13 -16 -19 -35 -11 -30 -11 -38 5 -62 10 -15 16 -36 15 -46 -2 -11 1 -17 6
-13 5 3 8 -6 6 -19 -1 -14 4 -31 11 -39 8 -7 14 -22 14 -32 2 -53 7 -80 18
-86 6 -5 9 -17 6 -27 -3 -10 0 -28 6 -39 8 -15 8 -23 0 -27 -6 -4 -8 -17 -5
-29 3 -12 -3 -48 -14 -81 l-18 -60 -1 60 c-3 113 -7 160 -19 182 -7 12 -11 39
-10 60 1 44 -16 83 -37 83 -23 0 -25 -14 -10 -70 8 -29 11 -58 7 -64 -4 -6 -7
-20 -8 -31 0 -11 -1 -44 -2 -73 -1 -36 -6 -52 -14 -50 -13 5 -18 24 -23 82 -5
46 -44 92 -70 82 -9 -3 -13 -10 -10 -16 3 -5 1 -10 -4 -10 -6 0 -10 8 -9 18 1
9 -2 36 -7 60 -5 30 -12 42 -21 38 -8 -3 -14 -1 -14 4 0 6 5 10 10 10 6 0 10
7 10 15 0 8 -5 15 -11 15 -6 0 -8 9 -4 20 3 11 2 20 -3 20 -14 0 -20 56 -9 75
6 11 5 21 -1 27 -6 6 -8 17 -5 24 3 8 1 14 -5 14 -6 0 -14 15 -18 32 -8 38
-31 77 -56 96 -9 7 -15 19 -12 27 7 16 -21 48 -43 51 -8 1 -17 -4 -20 -12 -3
-8 -12 -14 -20 -14 -10 0 -14 -7 -10 -20 3 -11 1 -20 -5 -20 -16 0 -33 -24
-35 -50 -1 -14 -4 -74 -5 -135 -2 -60 -6 -115 -10 -120 -9 -14 -6 -85 4 -85 4
0 7 -3 6 -7 0 -5 1 -15 5 -23 19 -50 26 -84 20 -94 -11 -17 -13 -75 -3 -101 5
-12 6 -26 2 -29 -11 -12 -9 -48 5 -53 17 -7 17 -23 -1 -23 -21 0 -17 -60 5
-89 10 -13 16 -27 13 -32 -3 -5 -2 -15 3 -21 4 -7 8 -17 8 -23 0 -5 8 -27 18
-49 32 -73 5 -57 -68 41 -40 54 -109 140 -154 192 -93 106 -100 117 -103 160
-3 41 -14 39 -22 -5 l-7 -35 -37 31 c-61 51 -63 52 -69 46 -3 -3 -18 1 -34 10
-27 13 -31 13 -67 -10 -36 -22 -40 -29 -46 -81 -7 -60 12 -162 39 -215 18 -35
19 -51 3 -45 -27 9 -68 13 -68 7 0 -4 14 -15 31 -24 21 -12 39 -38 61 -85 55
-121 57 -111 -22 -107 -41 2 -87 -2 -117 -11 -26 -8 -51 -15 -55 -15 -4 0 -5
218 -3 485 l4 485 -140 0 c-104 0 -139 -3 -140 -12 0 -7 0 -80 1 -163 2 -82 3
-338 4 -568 l2 -418 -32 -27 c-37 -32 -141 -149 -156 -176 -10 -18 -9 -18 23
1 93 57 154 93 159 93 5 0 5 -93 0 -500 -1 -96 -1 -188 -1 -205 l1 -30 753 1
c414 0 757 3 763 6 5 4 9 50 9 105 l0 98 -617 0 c-339 0 -620 3 -624 8 -4 4
-8 142 -9 307 l-1 300 40 1 c23 1 48 2 56 3 37 3 153 -25 201 -49 116 -58 139
-78 197 -165 32 -47 59 -90 62 -96 12 -25 87 -112 123 -141 73 -61 159 -65
223 -10 22 20 34 22 74 17 172 -22 437 132 702 409 94 98 251 291 243 299 -2
2 -43 -26 -91 -61 -314 -229 -615 -377 -768 -377 -37 0 -43 3 -53 30 -10 26
-8 37 10 73 28 54 113 141 132 133 7 -2 16 0 19 7 3 9 7 8 14 -2 8 -11 11 -9
14 10 1 13 10 25 18 25 8 1 17 3 20 4 24 9 40 6 42 -8 0 -10 2 -22 2 -29 1 -6
5 -15 9 -19 4 -4 7 -20 7 -36 0 -16 4 -27 9 -24 5 3 12 -11 16 -31 6 -32 8
-35 17 -19 12 22 3 94 -16 124 -5 9 -1 18 10 27 12 9 14 14 6 15 -7 0 -10 5
-6 11 4 8 12 3 20 -12 7 -13 13 -20 14 -15 0 5 7 3 15 -4 8 -6 19 -9 25 -5 5
3 10 2 10 -3 0 -6 7 -13 16 -16 11 -4 14 -1 12 12 -1 9 1 22 4 28 4 5 -3 22
-15 36 -65 75 -79 95 -84 121 -6 29 -21 34 -43 14 -12 -10 -12 -9 -1 6 7 9 10
17 5 18 -12 1 28 17 44 18 6 1 12 -8 12 -19 0 -11 5 -20 11 -20 5 0 8 3 5 8
-2 4 2 16 10 27 8 10 14 13 14 6 0 -7 4 -10 9 -6 5 3 12 1 16 -5 3 -5 24 -10
45 -10 35 0 43 -5 66 -40 15 -22 30 -37 35 -34 10 6 5 19 -18 45 -11 14 -11
18 2 29 28 24 19 37 -55 78 -14 8 -44 15 -67 16 -24 0 -43 3 -43 5 0 7 43 41
52 41 4 0 8 -5 8 -12 0 -9 3 -9 11 -1 8 8 20 8 34 3 13 -5 25 -6 28 -4 6 6 28
-31 23 -37 -2 -2 3 -10 11 -18 14 -13 15 -11 11 17 -4 31 4 42 17 22 3 -5 13
-10 22 -10 14 0 13 3 -3 21 -34 37 -86 59 -146 61 l-27 1 24 18 c26 21 55 25
55 8 0 -6 7 -9 15 -5 8 3 39 1 68 -5 88 -18 96 -18 90 -3 -3 8 -12 14 -20 14
-10 0 -13 6 -9 16 4 10 -1 22 -11 30 -17 12 -17 13 1 10 10 -1 29 -12 41 -24
13 -12 28 -22 34 -22 6 0 11 -5 11 -12 0 -6 3 -8 7 -5 4 4 -4 21 -16 38 -23
31 -22 74 1 51 16 -16 28 -15 28 3 0 8 -4 15 -10 15 -5 0 -10 4 -10 9 0 5 9 7
20 4 25 -7 26 5 3 24 -12 10 -8 9 10 -2 27 -15 28 -15 25 2 -2 12 3 18 14 17
10 -1 16 2 13 6 -3 5 1 11 7 13 10 4 10 6 0 6 -7 1 -10 6 -7 11 4 6 1 17 -5
25 -14 16 -9 18 41 17 15 0 26 6 27 14 1 8 3 20 4 28 1 8 6 12 12 10 6 -2 20
9 31 26 11 16 26 30 34 30 8 0 11 3 8 7 -4 3 -2 12 3 18 16 19 1 47 -21 40
-12 -4 -19 -1 -19 7 0 8 -7 5 -18 -8 -14 -18 -41 -34 -62 -38 -3 -1 -12 -5
-20 -10 -8 -5 -5 2 8 16 16 17 20 28 12 33 -6 3 -19 -4 -29 -17 -19 -22 -19
-23 -40 -4 -12 11 -21 15 -21 9 0 -5 -16 -27 -35 -49 -19 -21 -35 -45 -35 -53
0 -9 -8 -12 -25 -8 -14 2 -24 2 -21 0 2 -2 -7 -16 -21 -31 -14 -15 -39 -47
-55 -72 -26 -41 -28 -43 -23 -15 5 29 5 29 -5 5 -9 -20 -13 -22 -20 -10 -8 13
-12 12 -24 -5 -9 -11 -16 -27 -16 -35 0 -25 -42 -93 -88 -146 l-42 -49 6 35
c8 43 31 90 44 90 6 0 10 7 10 16 0 11 -6 14 -20 9 -15 -5 -20 -2 -20 12 0 11
4 23 9 29 6 5 13 25 16 44 3 19 14 44 23 55 33 38 44 67 33 78 -8 8 -21 1 -46
-23 -19 -18 -37 -31 -40 -28 -10 9 6 37 25 43 23 7 80 70 80 89 0 7 -7 17 -16
20 -20 8 -9 25 29 41 23 10 31 20 34 45 4 41 21 63 45 57 10 -3 18 -1 18 5 0
5 4 7 9 4 10 -6 75 55 84 78 10 25 -29 25 -59 0 -16 -13 -35 -23 -42 -24 -7 0
-29 -12 -48 -26 -37 -29 -44 -19 -20 28 17 32 3 53 -26 37 -19 -10 -27 4 -8
16 13 8 13 48 -1 62 -14 14 -13 127 2 155 10 19 9 20 -12 15 -13 -3 -29 -1
-36 5 -10 8 -13 5 -13 -11z m-434 -656 c3 -19 5 -38 4 -41 -1 -4 3 -10 9 -13
7 -5 8 -22 2 -51 -5 -25 -9 -38 -10 -29 -2 24 -51 12 -51 -12 0 -10 -9 -23
-20 -29 -11 -6 -20 -9 -20 -7 0 1 9 20 20 42 11 22 20 47 20 57 0 10 4 18 8
18 5 0 8 23 8 51 -1 28 1 52 3 54 9 10 21 -8 27 -40z m374 15 c0 -11 -4 -20
-8 -20 -4 0 -8 9 -8 20 0 11 4 20 8 20 4 0 8 -9 8 -20z m159 -136 c-12 -13
-25 -22 -27 -19 -9 8 29 56 39 49 6 -4 2 -15 -12 -30z m-509 -130 c0 -8 -10
-14 -25 -14 -14 0 -25 5 -25 10 0 6 5 10 10 10 6 0 10 7 10 16 0 14 3 14 15 4
8 -7 15 -19 15 -26z m240 -94 c-9 -17 -14 -19 -26 -9 -10 8 -14 8 -15 0 -1 -6
-3 -15 -4 -21 -1 -5 -3 -14 -4 -19 0 -5 -8 -11 -16 -15 -12 -4 -14 0 -10 19 3
14 7 36 10 50 4 19 12 25 31 25 14 0 28 7 32 18 6 15 7 14 10 -5 2 -12 -2 -31
-8 -43z m130 11 c0 -5 -7 -12 -16 -15 -14 -5 -15 -4 -4 9 14 17 20 19 20 6z
m-378 -18 c16 -19 30 -73 19 -73 -3 0 -7 -13 -7 -30 -1 -16 -5 -51 -9 -77 l-8
-48 -10 45 c-5 25 -10 55 -11 68 0 12 -4 22 -7 22 -14 0 -16 40 -3 59 8 10 11
26 8 35 -8 21 9 20 28 -1z m140 -45 c-7 -7 -12 -18 -12 -26 0 -8 -11 -23 -25
-33 -13 -11 -22 -26 -19 -33 3 -7 -3 -19 -12 -27 -16 -13 -17 -11 -10 16 4 16
11 32 15 35 4 3 17 22 30 43 12 20 28 37 34 37 8 0 7 -4 -1 -12z m-332 -121
c0 -12 0 -11 -24 28 l-17 30 20 -24 c12 -13 21 -28 21 -34z m111 -1 c10 -11
13 -83 2 -73 -3 4 -13 2 -20 -5 -20 -16 -32 5 -31 55 0 44 30 86 36 51 2 -10
8 -23 13 -28z m254 6 c-2 -9 -8 -28 -14 -42 -11 -23 -11 -23 -6 9 3 18 5 40 5
48 0 8 4 12 9 8 6 -3 8 -13 6 -23z m-86 -88 c-10 -13 -10 -17 0 -24 9 -5 10
-13 5 -23 -10 -18 -94 -80 -100 -75 -2 3 10 20 26 39 16 19 29 40 30 47 0 6 4
12 9 12 5 0 13 9 16 20 3 11 11 20 17 20 6 0 5 -6 -3 -16z m-160 -74 c0 -33
-1 -34 -14 -16 -11 14 -12 23 -4 33 8 9 8 17 0 26 -6 8 -8 17 -4 21 10 10 22
-23 22 -64z m100 -85 c-42 -56 -43 -56 -55 -33 -7 13 -10 26 -6 29 23 21 96
68 99 65 3 -3 -14 -30 -38 -61z"/>
</g>
</svg>
